<?xml version="1.0" encoding="utf-8"?>
<svg xmlns="http://www.w3.org/2000/svg" xmlns:xlink="http://www.w3.org/1999/xlink" style="margin: auto; display: block; shape-rendering: auto;" width="200px" height="200px" viewBox="0 0 100 100" preserveAspectRatio="xMidYMid">
<g transform="rotate(0 50 50)">
  <rect x="40.5" y="30.5" rx="9.5" ry="1.5" width="19" height="3" fill="#fe718d">
    <animate attributeName="opacity" values="1;0" keyTimes="0;1" dur="0.7874015748031495s" begin="-0.7217847769028871s" repeatCount="indefinite"></animate>
  </rect>
</g><g transform="rotate(30 50 50)">
  <rect x="40.5" y="30.5" rx="9.5" ry="1.5" width="19" height="3" fill="#f47e60">
    <animate attributeName="opacity" values="1;0" keyTimes="0;1" dur="0.7874015748031495s" begin="-0.6561679790026247s" repeatCount="indefinite"></animate>
  </rect>
</g><g transform="rotate(60 50 50)">
  <rect x="40.5" y="30.5" rx="9.5" ry="1.5" width="19" height="3" fill="#f8b26a">
    <animate attributeName="opacity" values="1;0" keyTimes="0;1" dur="0.7874015748031495s" begin="-0.5905511811023622s" repeatCount="indefinite"></animate>
  </rect>
</g><g transform="rotate(90 50 50)">
  <rect x="40.5" y="30.5" rx="9.5" ry="1.5" width="19" height="3" fill="#abbd81">
    <animate attributeName="opacity" values="1;0" keyTimes="0;1" dur="0.7874015748031495s" begin="-0.5249343832020997s" repeatCount="indefinite"></animate>
  </rect>
</g><g transform="rotate(120 50 50)">
  <rect x="40.5" y="30.5" rx="9.5" ry="1.5" width="19" height="3" fill="#849b87">
    <animate attributeName="opacity" values="1;0" keyTimes="0;1" dur="0.7874015748031495s" begin="-0.45931758530183725s" repeatCount="indefinite"></animate>
  </rect>
</g><g transform="rotate(150 50 50)">
  <rect x="40.5" y="30.5" rx="9.5" ry="1.5" width="19" height="3" fill="#6492ac">
    <animate attributeName="opacity" values="1;0" keyTimes="0;1" dur="0.7874015748031495s" begin="-0.39370078740157477s" repeatCount="indefinite"></animate>
  </rect>
</g><g transform="rotate(180 50 50)">
  <rect x="40.5" y="30.5" rx="9.5" ry="1.5" width="19" height="3" fill="#637cb5">
    <animate attributeName="opacity" values="1;0" keyTimes="0;1" dur="0.7874015748031495s" begin="-0.32808398950131235s" repeatCount="indefinite"></animate>
  </rect>
</g><g transform="rotate(210 50 50)">
  <rect x="40.5" y="30.5" rx="9.5" ry="1.5" width="19" height="3" fill="#6a63b6">
    <animate attributeName="opacity" values="1;0" keyTimes="0;1" dur="0.7874015748031495s" begin="-0.26246719160104987s" repeatCount="indefinite"></animate>
  </rect>
</g><g transform="rotate(240 50 50)">
  <rect x="40.5" y="30.5" rx="9.5" ry="1.5" width="19" height="3" fill="#fe718d">
    <animate attributeName="opacity" values="1;0" keyTimes="0;1" dur="0.7874015748031495s" begin="-0.19685039370078738s" repeatCount="indefinite"></animate>
  </rect>
</g><g transform="rotate(270 50 50)">
  <rect x="40.5" y="30.5" rx="9.5" ry="1.5" width="19" height="3" fill="#f47e60">
    <animate attributeName="opacity" values="1;0" keyTimes="0;1" dur="0.7874015748031495s" begin="-0.13123359580052493s" repeatCount="indefinite"></animate>
  </rect>
</g><g transform="rotate(300 50 50)">
  <rect x="40.5" y="30.5" rx="9.5" ry="1.5" width="19" height="3" fill="#f8b26a">
    <animate attributeName="opacity" values="1;0" keyTimes="0;1" dur="0.7874015748031495s" begin="-0.06561679790026247s" repeatCount="indefinite"></animate>
  </rect>
</g><g transform="rotate(330 50 50)">
  <rect x="40.5" y="30.5" rx="9.5" ry="1.5" width="19" height="3" fill="#abbd81">
    <animate attributeName="opacity" values="1;0" keyTimes="0;1" dur="0.7874015748031495s" begin="0s" repeatCount="indefinite"></animate>
  </rect>
</g>
<!-- [ldio] generated by https://loading.io/ --></svg>